<svg width="332" height="44" viewBox="0 0 332 44" fill="none" xmlns="http://www.w3.org/2000/svg">
<path d="M254.399 0H255.804V0.913947H258.399V43.3472H255.804V44H254.399V0Z" fill="white"/>
<path d="M215.23 0H216.636V0.913947H219.23V43.3472H216.636V44H215.23V0Z" fill="white"/>
<path d="M90.3386 0H91.707V0.913947H94.3386V13.7092H91.707V20.368H94.3386V40.6053L94.2334 40.7359H91.707V44H90.3386V0Z" fill="white"/>
<path d="M209.559 0H210.778V0.913947H212.559V43.2166L212.466 43.3472H210.778V44H209.559V0Z" fill="white"/>
<path d="M164.06 0H165.466V5.61424H168.06V38.6469H165.466V44H164.06V0Z" fill="white"/>
<path d="M261.389 0H262.647V0.913947H264.389V43.3472H262.647V44H261.389V0Z" fill="white"/>
<path d="M22.4197 0H23.8251V0.913947H26.4197V16.451H23.8251V27.8101H26.4197V43.3472H23.8251V44H22.4197V0Z" fill="white"/>
<path d="M27.9587 0H29.3641V8.22552H31.9587V35.905H29.3641V44H27.9587V0Z" fill="white"/>
<path d="M305.569 0H306.937V2.8724H309.569V16.451H306.937V27.8101H309.569V40.6053L309.464 40.7359H306.937V44H305.569V0Z" fill="white"/>
<path d="M73.5896 0H74.995V0.913947H77.5896V9.0089H74.995V15.0148H77.5896V23.8932H74.995V32.5104H76.941V34.4688H77.5896V43.3472H74.995V44H73.5896V0Z" fill="white"/>
<path d="M79.1287 0H80.4971V0.913947H83.1287V9.0089H80.4971V17.6261H83.0234L83.1287 17.7567V25.8516L83.0234 26.5045H80.4971V34.4688H83.0234L83.1287 34.5994V43.3472H80.4971V44H79.1287V0Z" fill="white"/>
<path d="M192.81 0H194.068V2.8724H195.23V5.61424H195.81V38.6469H194.068V44H192.81V0Z" fill="white"/>
<path d="M113.55 0H114.769V5.61424H116.55V38.5163L116.456 38.6469H114.769V44H113.55V0Z" fill="white"/>
<path d="M141.64 0H143.046V2.8724H145.64V16.451H143.046V27.8101H145.64V38.6469H144.992V40.6053L144.884 40.7359H143.046V44H141.64V0Z" fill="white"/>
<path d="M84.7996 0H86.205V0.913947H88.7996V9.0089H86.205V17.6261H88.6915L88.7996 17.7567V26.5045H86.205V34.4688H88.7996V43.3472H86.205V44H84.7996V0Z" fill="white"/>
<path d="M237.65 0H239.055V2.8724H241.65V28.5935H239.055V44H237.65V0Z" fill="white"/>
<path d="M277.61 0H278.868V5.61424H280.61V38.6469H278.868V44H277.61V0Z" fill="white"/>
<path d="M39.96 0H41.218V5.61424H42.96V38.6469H41.218V44H39.96V0Z" fill="white"/>
<path d="M67.9187 0H69.1375V2.8724H70.9187V21.1513H69.1375V27.8101H70.9187V40.6053L70.825 40.7359H69.1375V44H67.9187V0Z" fill="white"/>
<path d="M96.0095 0H97.4149V5.61424H100.01V13.7092H97.4149V22.3264H99.9014L100.01 22.457V38.6469H97.4149V44H96.0095V0Z" fill="white"/>
<path d="M158.389 0H159.795V10.3145H162.389V33.2938H159.795V44H158.389V0Z" fill="white"/>
<path d="M45.6309 0H46.8889V0.913947H48.6309V13.7092H46.8889V27.8101H48.6309V43.3472H46.8889V44H45.6309V0Z" fill="white"/>
<path d="M283.149 0H284.461V0.913947H285.586V2.8724H286.149V13.7092H284.461V29.7685H286.055L286.149 29.8991V40.6053L286.055 40.7359H284.461V44H283.149V0Z" fill="white"/>
<path d="M169.599 0H171.005V0.913947H173.599V11.7507H171.005V32.5104H173.599V40.7359H171.005V44H169.599V0Z" fill="white"/>
<path d="M300.03 0H301.435V0.913947H304.03V9.0089H301.435V32.5104H304.03V43.3472H301.435V44H300.03V0Z" fill="white"/>
<path d="M243.189 0H244.594V5.61424H247.189V23.8932H244.594V44H243.189V0Z" fill="white"/>
<path d="M107.219 0H108.625V12.9258H111.219V31.2047H108.625V44H107.219V0Z" fill="white"/>
<path d="M198.349 0H199.568V10.3145H201.349V33.1632L201.256 33.2938H199.568V44H198.349V0Z" fill="white"/>
<path d="M294.359 0H295.727V0.913947H298.359V9.0089H295.727V34.4688H298.254L298.359 34.5994V43.3472H295.727V44H294.359V0Z" fill="white"/>
<path d="M175.138 0H176.507V0.913947H179.138V9.0089H176.507V34.4688H179.033L179.138 34.5994V43.3472H176.507V44H175.138V0Z" fill="white"/>
<path d="M220.769 0H222.137V0.913947H224.769V9.0089H222.137V20.368H224.664L224.769 20.4985V28.4629L224.664 28.5935H222.137V44H220.769V0Z" fill="white"/>
<path d="M288.82 0H290.225V0.913947H292.82V9.0089H290.225V34.4688H292.82V43.3472H290.225V44H288.82V0Z" fill="white"/>
<path d="M180.809 0H182.214V0.913947H184.809V9.0089H182.214V34.4688H184.809V43.3472H182.214V44H180.809V0Z" fill="white"/>
<path d="M17.3977 0H18.1544V0.913947H20.749V9.0089H18.1544V34.4688H20.749V43.3472H18.1544V44L16.749 43.8694V0.130564L17.3977 0Z" fill="white"/>
<path d="M311.24 0H312.645V8.22552H315.24V16.451H312.645V27.8101H315.24V35.905H312.645V44H311.24V0Z" fill="white"/>
<path d="M231.979 0H233.384V0.913947H235.979V9.0089H233.384V20.368H235.979V28.5935H233.384V44H231.979V0Z" fill="white"/>
<path d="M226.44 0H227.845V0.913947H230.44V9.0089H227.845V20.368H230.44V28.5935H227.845V44H226.44V0Z" fill="white"/>
<path d="M135.969 0H137.228V0.913947H138.969V11.7507H137.228V32.5104H138.969V40.7359H138.389V43.3472H137.228V44H135.969V0Z" fill="white"/>
<path d="M187.139 0H188.358V0.913947H190.139V11.7507H188.358V32.5104H190.139V40.6053L190.046 40.7359H188.358V44H187.139V0Z" fill="white"/>
<path d="M119.221 0H120.479V0.913947H122.221V11.7507H120.479V32.5104H122.221V40.6053L122.124 40.7359H120.479V44H119.221V0Z" fill="white"/>
<path d="M33.6296 0H35.035V15.0148H37.6296V28.5935H35.035V44H33.6296V0Z" fill="white"/>
<path d="M147.179 0H148.585V8.22552H150.531V10.3145H151.179V16.451H148.585V27.8101H151.179V33.2938H148.585V44H147.179V0Z" fill="white"/>
<path d="M62.3799 0H63.6379V8.22552H65.3799V16.451H64.2186V19.0623L64.1218 19.1929H63.6379V27.8101H65.3799V35.905H63.6379V44H62.3799V0Z" fill="white"/>
<path d="M130.43 0H131.688V0.913947H133.43V9.0089H131.688V34.4688H133.43V43.3472H131.688V44H130.43V0Z" fill="white"/>
<path d="M124.76 0H126.018V0.913947H127.76V9.0089H126.018V34.4688H127.76V43.3472H126.018V44H124.76V0Z" fill="white"/>
<path d="M272.071 0H273.329V12.9258H275.071V28.5935H273.91V31.2047H273.329V44H272.071V0Z" fill="white"/>
<path d="M51.1699 0H52.428V0.913947H54.1699V7.05044H52.428V34.4688H54.1699V43.3472H52.428V44H51.1699V0Z" fill="white"/>
<path d="M327.989 7.05042L328.304 7.18098L329.357 8.87831V17.6261H331.883L331.989 17.7566V25.721L331.883 26.5044H329.357V35.1216L328.62 36.2967L328.199 36.9495H327.989V7.05042Z" fill="white"/>
<path d="M266.4 0H267.4V44H266.4V0Z" fill="white"/>
<path d="M248.86 0H249.86V44H248.86V0Z" fill="white"/>
<path d="M204.02 0H205.02V44H204.02V0Z" fill="white"/>
<path d="M152.85 0H153.85V44H152.85V0Z" fill="white"/>
<path d="M101.549 0H102.549V44H101.549V0Z" fill="white"/>
<path d="M56.8408 0H57.8408V44H56.8408V0Z" fill="white"/>
<path d="M316.779 0.522217L317.548 0.783344L317.779 0.913908V43.086L316.779 43.4777V0.522217Z" fill="white"/>
<path d="M12.0561 1.04456L12.21 1.17512V42.9555L11.4407 42.5638L11.21 42.4333V1.69737L11.9023 1.17512L12.0561 1.04456Z" fill="white"/>
<path d="M322.449 2.74182L322.911 3.00295L323.449 3.65577V40.3442L322.603 41.2581H322.449V2.74182Z" fill="white"/>
<path d="M6.38522 3.91687H6.53906V40.083L6.15445 39.8219L5.53906 38.908V5.09194L6.15445 4.178L6.38522 3.91687Z" fill="white"/>
<path d="M0.846154 9.40063H1V34.5994L0.615385 33.9466L0 32.1187V11.8813L0.692308 9.79233L0.846154 9.40063Z" fill="white"/>
</svg>
