<svg width="20" height="21" viewBox="0 0 20 21" fill="none" xmlns="http://www.w3.org/2000/svg">
<path fill-rule="evenodd" clip-rule="evenodd" d="M20 10.5C20 16.0229 15.5229 20.5 10 20.5C4.47715 20.5 0 16.0229 0 10.5C0 4.97715 4.47715 0.5 10 0.5C15.5229 0.5 20 4.97715 20 10.5ZM7.4354 8.75405C6.74465 8.43015 5.9252 8.48415 5.27735 8.91605C5.0476 9.0692 4.73715 9.0071 4.58395 8.77735C4.4308 8.5476 4.4929 8.23715 4.72265 8.08395L4.724 8.0831C4.74035 8.0722 4.7568 8.06145 4.77335 8.05085C4.89215 7.97485 5.01475 7.9074 5.14025 7.84855C6.14435 7.37765 7.3356 7.45615 8.27735 8.08395C8.30605 8.1031 8.33215 8.12475 8.35555 8.1483C8.51925 8.3135 8.55005 8.5763 8.41605 8.77735C8.26285 9.0071 7.9524 9.0692 7.72265 8.91605C7.6301 8.85435 7.53405 8.80035 7.4354 8.75405ZM14.4538 8.76285C14.5461 8.8071 14.6359 8.8582 14.7227 8.91605C14.9524 9.0692 15.2628 9.0071 15.416 8.77735C15.5692 8.5476 15.5071 8.23715 15.2773 8.08395C15.1428 7.9943 15.0032 7.9158 14.8598 7.84855C13.8557 7.37765 12.6644 7.45615 11.7226 8.08395C11.4929 8.23715 11.4308 8.5476 11.584 8.77735C11.7372 9.0071 12.0476 9.0692 12.2774 8.91605C12.9252 8.48415 13.7446 8.43015 14.4354 8.75405C14.4416 8.75695 14.4477 8.7599 14.4538 8.76285ZM5.37095 13.5C6.2309 15.2809 7.98095 16.5 10 16.5C12.019 16.5 13.7691 15.2809 14.629 13.5C14.782 13.1832 14.9068 12.8486 15 12.5H5C5.09315 12.8486 5.21795 13.1832 5.37095 13.5Z" fill="white"/>
</svg>
