<svg width="20" height="24" viewBox="0 0 20 24" fill="none" xmlns="http://www.w3.org/2000/svg">
<path d="M19.5619 14.3723L18.2422 12.1767C17.9502 11.6979 17.6932 10.7752 17.6932 10.2146V8.03067C17.6932 3.79123 14.248 0.345947 10.0202 0.345947C5.7808 0.357626 2.33552 3.79123 2.33552 8.03067V10.203C2.33552 10.7636 2.07858 11.6862 1.79829 12.165L0.47857 14.3607C-0.0236229 15.2132 -0.140412 16.1826 0.174919 17.0235C0.490249 17.876 1.20266 18.5534 2.13698 18.857C3.3983 19.2775 4.6713 19.5811 5.96766 19.803C6.09613 19.8264 6.22459 19.8381 6.35306 19.8614C6.51657 19.8848 6.69175 19.9081 6.86693 19.9315C7.17059 19.9782 7.47424 20.0133 7.78953 20.0366C8.5253 20.1067 9.27275 20.1417 10.0202 20.1417C10.756 20.1417 11.4917 20.1067 12.2158 20.0366C12.4845 20.0133 12.7531 19.9899 13.01 19.9549C13.2202 19.9315 13.4304 19.9081 13.6407 19.8731C13.7691 19.8614 13.8976 19.8381 14.0261 19.8147C15.3341 19.6045 16.6305 19.2775 17.8918 18.857C18.7911 18.5534 19.4801 17.876 19.8071 17.0118C20.1341 16.1359 20.0407 15.1782 19.5619 14.3723ZM10.8728 9.6307C10.8728 10.1212 10.4757 10.5183 9.98517 10.5183C9.49465 10.5183 9.09757 10.1212 9.09757 9.6307V6.01022C9.09757 5.5197 9.49465 5.12262 9.98517 5.12262C10.4757 5.12262 10.8728 5.5197 10.8728 6.01022V9.6307Z" fill="white"/>
<path d="M13.3027 21.3299C12.8122 22.6846 11.5158 23.654 9.99757 23.654C9.07493 23.654 8.16398 23.2802 7.52163 22.6145C7.1479 22.2642 6.86761 21.797 6.7041 21.3182C6.85593 21.3415 7.00775 21.3532 7.17126 21.3766C7.43987 21.4116 7.72018 21.4466 8.00047 21.47C8.66617 21.5284 9.34355 21.5634 10.0209 21.5634C10.6866 21.5634 11.3523 21.5284 12.0063 21.47C12.2516 21.4466 12.4969 21.435 12.7304 21.3999C12.9173 21.3766 13.1042 21.3532 13.3027 21.3299Z" fill="white"/>
</svg>
