<svg width="21" height="21" viewBox="0 0 21 21" fill="none" xmlns="http://www.w3.org/2000/svg">
<path d="M10.5 18C10.3903 18.0006 10.2816 17.9796 10.1801 17.9382C10.0785 17.8967 9.98618 17.8356 9.90831 17.7583L3.43331 11.275C2.62111 10.4543 2.16553 9.34632 2.16553 8.19168C2.16553 7.03704 2.62111 5.92903 3.43331 5.10835C4.25186 4.29211 5.36067 3.83374 6.51664 3.83374C7.67262 3.83374 8.78142 4.29211 9.59998 5.10835L10.5 6.00835L11.4 5.10835C12.2185 4.29211 13.3273 3.83374 14.4833 3.83374C15.6393 3.83374 16.7481 4.29211 17.5666 5.10835C18.3788 5.92903 18.8344 7.03704 18.8344 8.19168C18.8344 9.34632 18.3788 10.4543 17.5666 11.275L11.0916 17.7583C11.0138 17.8356 10.9214 17.8967 10.8199 17.9382C10.7184 17.9796 10.6096 18.0006 10.5 18Z" fill="white"/>
</svg>
