<svg width="20" height="17" viewBox="0 0 20 17" fill="none" xmlns="http://www.w3.org/2000/svg">
<path d="M19.3159 9.14064C19.7773 8.94022 20 8.65391 20 8.36759C20 8.08128 19.7773 7.81643 19.3159 7.67328L15.5529 6.50653L17.1678 3.53601C17.2553 3.38569 17.2793 3.22823 17.2793 3.09221C17.2793 2.69137 16.9451 2.39789 16.5075 2.39789C16.3565 2.39789 16.1813 2.41939 16.0143 2.49812L12.6014 4.00128L10.8194 0.572625C10.6285 0.193285 10.3182 0 10 0C9.68971 0 9.37946 0.193285 9.18854 0.572625L7.4065 4.00128L3.99364 2.49812C3.81861 2.41939 3.65154 2.39789 3.50039 2.39789C3.06286 2.39789 2.72075 2.69137 2.72075 3.09221C2.72075 3.22823 2.75257 3.38569 2.84011 3.53601L4.45504 6.50653L0.684179 7.67328C0.238679 7.80927 0 8.08845 0 8.37476C0 8.6539 0.230714 8.94022 0.684179 9.14064L4.29593 10.6939L2.34686 14.4089C2.25139 14.5735 2.21161 14.731 2.21161 14.8813C2.21161 15.2392 2.48211 15.4968 2.86396 15.4968C3.02307 15.4968 3.19807 15.4467 3.38107 15.3465L7.99521 12.8914L9.26014 16.413C9.41129 16.7996 9.69768 17 10 17C10.3182 17 10.5966 16.7996 10.7399 16.413L12.0127 12.8914L16.6269 15.3465C16.8099 15.4467 16.9849 15.4897 17.144 15.4897C17.51 15.4897 17.7962 15.2463 17.7962 14.8884C17.7962 14.7381 17.7485 14.5735 17.661 14.4089L15.7041 10.6939L19.3159 9.14064Z" fill="white"/>
</svg>
