<svg width="17" height="20" viewBox="0 0 17 20" fill="none" xmlns="http://www.w3.org/2000/svg">
<path d="M15.8204 9.05106C15.3792 8.07432 14.7378 7.19765 13.9363 6.4759L13.275 5.87905C13.2525 5.85934 13.2255 5.84535 13.1963 5.83831C13.167 5.83128 13.1365 5.83141 13.1073 5.83869C13.0782 5.84597 13.0512 5.86019 13.029 5.88009C13.0067 5.89998 12.9897 5.92496 12.9795 5.95282L12.6841 6.78661C12.5 7.3097 12.1614 7.84395 11.6818 8.36927C11.65 8.4028 11.6136 8.41174 11.5886 8.41398C11.5636 8.41621 11.525 8.41174 11.4909 8.38045C11.4591 8.35362 11.4432 8.31339 11.4454 8.27315C11.5295 6.92744 11.1204 5.40962 10.225 3.75766C9.48408 2.38513 8.45454 1.31438 7.16817 0.567762L6.22954 0.0245628C6.10681 -0.0469697 5.94999 0.0469166 5.95681 0.187746L6.00681 1.26073C6.0409 1.99394 5.95454 2.6422 5.74999 3.18093C5.49999 3.84037 5.1409 4.45287 4.68181 5.00277C4.36232 5.38494 4.0002 5.73061 3.60227 6.03329C2.64387 6.75793 1.86457 7.68643 1.32273 8.74929C0.782213 9.82141 0.500659 11.0018 0.5 12.1985C0.5 13.2536 0.711363 14.2752 1.12954 15.2386C1.53333 16.1662 2.11604 17.0081 2.84545 17.7177C3.58182 18.433 4.43636 18.9963 5.38863 19.3875C6.37499 19.7943 7.42045 20 8.49999 20C9.57954 20 10.625 19.7943 11.6114 19.3897C12.5613 19.0008 13.4251 18.4337 14.1545 17.7199C14.8909 17.0046 15.4682 16.1685 15.8704 15.2409C16.288 14.28 16.5022 13.2456 16.5 12.2007C16.5 11.1099 16.2727 10.0503 15.8204 9.05106Z" fill="white"/>
</svg>
