<svg width="20" height="22" viewBox="0 0 20 22" fill="none" xmlns="http://www.w3.org/2000/svg">
<path fill-rule="evenodd" clip-rule="evenodd" d="M3.79556 1.98667C5.87667 0.488889 8.34 0 10 0C13.9178 0 16.4733 1.65778 18.0133 3.79556C19.5111 5.87667 20 8.34 20 10V20C20 20.2197 19.9348 20.4345 19.8127 20.6172C19.6906 20.7999 19.5171 20.9422 19.3141 21.0263C19.1111 21.1104 18.8877 21.1324 18.6722 21.0895C18.4567 21.0467 18.2587 20.9409 18.1033 20.7856L16.6667 19.3489L14.9044 21.1111C14.4877 21.5277 13.9226 21.7617 13.3333 21.7617C12.7441 21.7617 12.179 21.5277 11.7622 21.1111L10 19.3489L8.23778 21.1111C7.82105 21.5277 7.25592 21.7617 6.66667 21.7617C6.07741 21.7617 5.51228 21.5277 5.09556 21.1111L3.33333 19.3489L1.89667 20.7856C1.74128 20.9409 1.54332 21.0467 1.32781 21.0895C1.11231 21.1324 0.888939 21.1104 0.685939 21.0263C0.48294 20.9422 0.309425 20.7999 0.187332 20.6172C0.0652379 20.4345 4.69159e-05 20.2197 0 20V10C0 6.08222 1.65778 3.52667 3.79556 1.98667ZM4.44444 8.88889C4.44444 8.29952 4.67857 7.73429 5.09532 7.31754C5.51207 6.90079 6.0773 6.66667 6.66667 6.66667C7.25604 6.66667 7.82127 6.90079 8.23802 7.31754C8.65476 7.73429 8.88889 8.29952 8.88889 8.88889C8.88889 9.47826 8.65476 10.0435 8.23802 10.4602C7.82127 10.877 7.25604 11.1111 6.66667 11.1111C6.0773 11.1111 5.51207 10.877 5.09532 10.4602C4.67857 10.0435 4.44444 9.47826 4.44444 8.88889ZM11.1111 8.88889C11.1111 8.29952 11.3452 7.73429 11.762 7.31754C12.1787 6.90079 12.744 6.66667 13.3333 6.66667C13.9227 6.66667 14.4879 6.90079 14.9047 7.31754C15.3214 7.73429 15.5556 8.29952 15.5556 8.88889C15.5556 9.47826 15.3214 10.0435 14.9047 10.4602C14.4879 10.877 13.9227 11.1111 13.3333 11.1111C12.744 11.1111 12.1787 10.877 11.762 10.4602C11.3452 10.0435 11.1111 9.47826 11.1111 8.88889Z" fill="white"/>
</svg>
