<svg width="25" height="25" viewBox="0 0 25 25" fill="none" xmlns="http://www.w3.org/2000/svg">
<path d="M2.0835 17.1875C2.0835 20.3542 4.646 22.9167 7.81266 22.9167C10.9793 22.9167 13.5418 20.3542 13.5418 17.1875V10.4167H2.0835V17.1875ZM7.81266 19.2709C6.37516 19.2709 5.2085 18.5729 5.2085 17.7084H10.4168C10.4168 18.5729 9.25016 19.2709 7.81266 19.2709ZM10.4168 13.5417C10.9897 13.5417 11.4585 14.0104 11.4585 14.5834C11.4585 15.1563 10.9897 15.625 10.4168 15.625C9.84391 15.625 9.37516 15.1563 9.37516 14.5834C9.37516 14.0104 9.84391 13.5417 10.4168 13.5417ZM5.2085 13.5417C5.78141 13.5417 6.25016 14.0104 6.25016 14.5834C6.25016 15.1563 5.78141 15.625 5.2085 15.625C4.63558 15.625 4.16683 15.1563 4.16683 14.5834C4.16683 14.0104 4.63558 13.5417 5.2085 13.5417Z" fill="white"/>
<path d="M11.4585 3.125V9.375H14.5835V11.9792C14.5835 11.1146 15.7502 10.4167 17.1877 10.4167C18.6252 10.4167 19.7918 11.1146 19.7918 11.9792H14.5835V14.5833V14.9896C15.3647 15.3854 16.2502 15.625 17.1877 15.625C20.3543 15.625 22.9168 13.0625 22.9168 9.89583V3.125H11.4585ZM14.5835 8.41667C14.0106 8.41667 13.5418 7.94792 13.5418 7.375C13.5418 6.80208 14.0106 6.33333 14.5835 6.33333C15.1564 6.33333 15.6252 6.80208 15.6252 7.375C15.6252 7.95833 15.1564 8.41667 14.5835 8.41667ZM19.7918 8.41667C19.2189 8.41667 18.7502 7.94792 18.7502 7.375C18.7502 6.80208 19.2189 6.33333 19.7918 6.33333C20.3647 6.33333 20.8335 6.80208 20.8335 7.375C20.8335 7.95833 20.3647 8.41667 19.7918 8.41667Z" fill="white"/>
</svg>
